<svg width="70" height="70" viewBox="0 0 70 70" fill="none" xmlns="http://www.w3.org/2000/svg">
<g clip-path="url(#clip0_177_119)">
<path d="M36.3178 33.6304C37.6802 35.2748 39.6039 36.2889 41.7346 36.4887C43.8652 36.6886 45.9439 36.0499 47.5884 34.6875C49.2328 33.3251 50.2468 31.4014 50.4467 29.2708C50.6465 27.1401 50.0079 25.0614 48.6455 23.417C47.2831 21.7726 45.3594 20.7585 43.2287 20.5587C41.0981 20.3588 39.0193 20.9975 37.3749 22.3599C35.7305 23.7223 34.7164 25.646 34.5166 27.7766C34.3168 29.9073 34.9554 31.986 36.3178 33.6304ZM38.6452 23.9153C39.8758 22.8958 41.438 22.4095 43.0311 22.5589C44.6241 22.7084 46.0696 23.4667 47.0882 24.7072C48.1068 25.9477 48.5939 27.5 48.4445 29.093C48.2951 30.686 47.5368 32.1315 46.2963 33.1501C45.0557 34.1687 43.5035 34.6559 41.9104 34.5065C40.3174 34.3571 38.8719 33.5988 37.8533 32.3582C36.8347 31.1177 36.3476 29.5654 36.497 27.9724C36.6464 26.3794 37.4047 24.9339 38.6452 23.9153Z" fill="#D8E28C"/>
<path d="M65.0862 10.5961C65.0685 10.1425 64.7536 9.75135 64.3102 9.65954C64.0153 9.5917 57.1641 8.10542 48.2849 9.82375L48.2749 9.82282L47.6915 9.93885C44.9775 10.4978 42.3487 11.326 39.8685 12.389C39.3664 12.6031 39.1302 13.1936 39.3433 13.7057C39.5573 14.2079 40.1479 14.4441 40.66 14.231C42.8364 13.3001 45.1354 12.5616 47.5153 12.0315L59.6686 26.7006C57.2269 32.3874 53.6296 37.2226 48.9587 41.0833C46.0084 43.5184 43.0419 45.5904 40.1446 47.2471C39.6667 47.5237 39.4992 48.1307 39.7758 48.6086C39.9388 48.9051 40.2335 49.0834 40.5521 49.1133C40.7512 49.132 40.9559 49.0909 41.1364 48.9873C44.129 47.2793 47.1925 45.1361 50.2299 42.6287C55.3047 38.4243 59.1758 33.1326 61.7485 26.9057L61.9819 26.345L61.972 26.3441C65.3124 17.9293 65.116 10.9203 65.1142 10.6188L65.0862 10.5961ZM60.4833 24.5472L49.7375 11.5771C56.0318 10.5403 61.177 11.1535 63.0765 11.4622C63.0266 13.386 62.6724 18.5555 60.4833 24.5472Z" fill="#D8E28C"/>
<path d="M31.009 53.2905L31.6288 53.1076C31.6288 53.1076 31.6288 53.1076 31.6387 53.1085C33.5697 52.5464 35.5084 51.7942 37.4014 50.887C37.8955 50.6521 38.1127 50.0497 37.8778 49.5556C37.6429 49.0615 37.0405 48.8443 36.5465 49.0792C34.9481 49.8433 33.3212 50.4842 31.6964 50.9947L18.3882 34.9317C21.1153 29.8442 25.5809 24.6384 31.3527 19.8565C33.106 18.4039 35.0164 17.0966 37.0295 15.9797C37.5165 15.714 37.6839 15.107 37.4182 14.6201C37.1516 14.1431 36.5455 13.9657 36.0585 14.2314C33.9393 15.4086 31.9318 16.7872 30.0805 18.321C23.894 23.4557 19.1274 29.0852 16.3096 34.6062L16.0137 35.1911C14.6193 38.0635 13.7903 40.798 13.5513 43.3468C13.527 43.6057 13.6122 43.8748 13.7746 44.0708L21.8497 53.8175C22.0302 54.0353 22.3006 54.1511 22.5694 54.1763C25.0983 54.4135 27.9293 54.1065 30.9801 53.2778L31.009 53.2905ZM23.1445 52.2214L15.6107 43.1282C15.8416 41.2013 16.4625 39.08 17.4401 36.9018L29.6024 51.5817C27.2804 52.1373 25.0806 52.3528 23.1445 52.2214Z" fill="#D8E28C"/>
<path d="M20.0334 54.772C19.6034 54.4304 18.974 54.5019 18.6323 54.9319C18.2107 55.4648 17.7113 55.9704 17.1341 56.4486C13.878 59.1463 8.56785 58.5779 6.59962 58.2527C6.64606 56.2583 7.0741 50.9451 10.3312 48.2374C10.9084 47.7592 11.498 47.3626 12.1 47.0474C12.5861 46.7917 12.7734 46.1865 12.5176 45.7005C12.2619 45.2145 11.6568 45.0272 11.1708 45.2829C10.4517 45.6674 9.73421 46.1425 9.05902 46.7019C4.24558 50.6898 4.5909 58.7875 4.60893 59.1307C4.62758 59.5743 4.9443 59.9455 5.37584 60.0563C5.49345 60.0874 6.48596 60.3211 7.93958 60.4575C10.7373 60.7199 15.2463 60.6205 18.4153 57.995C19.0905 57.4356 19.6907 56.819 20.2022 56.1839C20.5439 55.754 20.4724 55.1245 20.0424 54.7829L20.0334 54.772Z" fill="#D8E28C"/>
<path d="M46.0329 48.3821C45.485 48.4412 45.087 48.9362 45.1461 49.4841C45.5256 52.9346 44.363 55.7986 41.6949 58.0091C38.7002 60.4902 34.1081 60.5115 31.4199 60.2594L31.39 60.2566C32.3017 59.3176 33.354 57.9499 34.0454 56.1466C34.2443 55.6329 33.987 55.0564 33.4733 54.8575C32.9596 54.6587 32.3831 54.916 32.1843 55.4297C31.0139 58.4837 28.545 60.0701 28.5242 60.0782C28.1822 60.2972 27.9946 60.6914 28.0677 61.09C28.1308 61.4876 28.4423 61.8081 28.8358 61.8952C28.9544 61.9164 29.889 62.1246 31.2829 62.2553C34.2897 62.5373 39.4278 62.4769 42.9671 59.5446C46.1361 56.919 47.574 53.3678 47.1259 49.258C47.0668 48.7101 46.5718 48.3121 46.0239 48.3712L46.0329 48.3821Z" fill="#D8E28C"/>
<path d="M7.80525 36.6208C7.89299 36.6491 7.97171 36.6665 8.06131 36.6749C8.36996 36.7039 8.67177 36.5916 8.88428 36.3604C8.90606 36.3423 10.9139 34.2105 14.1323 33.6285C14.674 33.5287 15.034 33.01 14.9342 32.4683C14.8343 31.9267 14.3157 31.5666 13.774 31.6665C11.8636 32.0096 10.3241 32.7892 9.2419 33.5113C9.4931 30.8331 10.3598 26.3042 13.3655 23.814C16.0336 21.6035 19.0628 21.0038 22.3835 22.0083C22.9109 22.1682 23.4713 21.8693 23.6312 21.3419C23.7912 20.8145 23.4922 20.2541 22.9648 20.0942C19.02 18.8906 15.2533 19.6421 12.0843 22.2676C6.90059 26.5623 7.1317 35.3423 7.14693 35.7153C7.15936 36.1183 7.41727 36.4739 7.7953 36.6198L7.80525 36.6208Z" fill="#D8E28C"/>
</g>
<defs>
<clipPath id="clip0_177_119">
<rect width="64" height="64" fill="white" transform="translate(5.97656) rotate(5.3583)"/>
</clipPath>
</defs>
</svg>
