<svg width="58" height="59" viewBox="0 0 58 59" fill="none" xmlns="http://www.w3.org/2000/svg">
<path d="M11.3589 43.5992C8.94219 40.9409 7.49219 38.0409 7.49219 33.2075C7.49219 24.7492 13.5339 17.2575 21.9922 13.3909L24.1672 16.5325C16.1922 20.8825 14.5005 26.4409 14.0172 30.0659C15.2255 29.3409 16.9172 29.0992 18.6089 29.3409C22.9589 29.8242 26.3422 33.2075 26.3422 37.7992C26.3422 39.9742 25.3755 42.1492 23.9255 43.8409C22.2339 45.5325 20.3005 46.2575 17.8839 46.2575C15.2255 46.2575 12.8089 45.0492 11.3589 43.5992ZM35.5255 43.5992C33.1089 40.9409 31.6589 38.0409 31.6589 33.2075C31.6589 24.7492 37.7005 17.2575 46.1589 13.3909L48.3339 16.5325C40.3589 20.8825 38.6672 26.4409 38.1839 30.0659C39.3922 29.3409 41.0839 29.0992 42.7755 29.3409C47.1255 29.8242 50.5089 33.2075 50.5089 37.7992C50.5089 39.9742 49.5422 42.1492 48.0922 43.8409C46.6422 45.5325 44.4672 46.2575 42.0505 46.2575C39.3922 46.2575 36.9755 45.0492 35.5255 43.5992Z" fill="#D8E28C"/>
</svg>
