<svg width="21" height="21" viewBox="0 0 21 21" fill="none" xmlns="http://www.w3.org/2000/svg">
<g clip-path="url(#clip0_57_3471)">
<path d="M19.8652 9.74597L14.0318 3.91264C13.8747 3.76084 13.6641 3.67684 13.4457 3.67874C13.2272 3.68064 13.0181 3.76828 12.8636 3.92279C12.7091 4.0773 12.6215 4.28631 12.6196 4.5048C12.6177 4.7233 12.7017 4.9338 12.8535 5.09097L17.2643 9.5018H2.60932C2.38831 9.5018 2.17634 9.5896 2.02006 9.74588C1.86378 9.90216 1.77599 10.1141 1.77599 10.3351C1.77599 10.5562 1.86378 10.7681 2.02006 10.9244C2.17634 11.0807 2.38831 11.1685 2.60932 11.1685H17.2643L12.8535 15.5793C12.7739 15.6562 12.7104 15.7481 12.6667 15.8498C12.6231 15.9515 12.6001 16.0608 12.5991 16.1715C12.5981 16.2821 12.6192 16.3919 12.6611 16.4943C12.703 16.5967 12.7649 16.6897 12.8432 16.768C12.9214 16.8462 13.0144 16.9081 13.1169 16.95C13.2193 16.9919 13.329 17.013 13.4397 17.012C13.5503 17.0111 13.6597 16.9881 13.7613 16.9444C13.863 16.9007 13.9549 16.8372 14.0318 16.7576L19.8652 10.9243C20.0214 10.768 20.1091 10.5561 20.1091 10.3351C20.1091 10.1142 20.0214 9.90224 19.8652 9.74597Z" fill="black"/>
</g>
<defs>
<clipPath id="clip0_57_3471">
<rect width="20" height="20" fill="white" transform="translate(0.942657 0.335205)"/>
</clipPath>
</defs>
</svg>
