<svg width="41" height="40" viewBox="0 0 41 40" fill="none" xmlns="http://www.w3.org/2000/svg">
<g clip-path="url(#clip0_70_44)">
<path d="M26.3826 30.986H14.3638C13.8411 30.984 13.3405 30.775 12.9717 30.4047C12.6028 30.0344 12.3957 29.533 12.3957 29.0104V28.0489C12.3923 27.7685 12.3224 27.493 12.1918 27.2449C12.0612 26.9968 11.8737 26.7832 11.6445 26.6216C9.78396 25.2482 8.27119 23.4578 7.22758 21.394C6.18397 19.3303 5.63857 17.0507 5.63513 14.7381C5.64962 14.6238 5.7053 14.5187 5.79173 14.4425C5.87816 14.3664 5.98941 14.3243 6.10462 14.3243C6.21982 14.3243 6.33107 14.3664 6.4175 14.4425C6.50393 14.5187 6.55961 14.6238 6.5741 14.7381C6.57894 16.906 7.09339 19.0424 8.07594 20.9749C9.05849 22.9074 10.4816 24.5818 12.2304 25.863C12.5718 26.1164 12.8493 26.4459 13.041 26.8254C13.2326 27.2048 13.3332 27.6238 13.3347 28.0489V29.0104C13.3347 29.284 13.4428 29.5465 13.6356 29.7407C13.8284 29.9349 14.0901 30.045 14.3638 30.047H26.3826C26.6575 30.047 26.9211 29.9378 27.1156 29.7434C27.31 29.549 27.4192 29.2853 27.4192 29.0104V28.0489C27.4206 27.6238 27.5212 27.2048 27.7129 26.8254C27.9046 26.4459 28.1821 26.1164 28.5234 25.863C30.2722 24.5818 31.6953 22.9074 32.6779 20.9749C33.6604 19.0424 34.1749 16.906 34.1797 14.7381C34.1942 14.6238 34.2499 14.5187 34.3363 14.4425C34.4228 14.3664 34.534 14.3243 34.6492 14.3243C34.7644 14.3243 34.8757 14.3664 34.9621 14.4425C35.0485 14.5187 35.1042 14.6238 35.1187 14.7381C35.1153 17.0507 34.5699 19.3303 33.5263 21.394C32.4826 23.4578 30.9699 25.2482 29.1093 26.6216C28.8802 26.7832 28.6926 26.9968 28.562 27.2449C28.4314 27.493 28.3616 27.7685 28.3581 28.0489V29.0104C28.3581 29.5343 28.15 30.0368 27.7795 30.4073C27.409 30.7778 26.9065 30.986 26.3826 30.986Z" fill="#114A43"/>
<path d="M34.6454 15.2113C34.5212 15.2093 34.4028 15.1586 34.3156 15.0701C34.2285 14.9815 34.1797 14.8623 34.1797 14.7381C34.0956 11.1331 32.6045 7.70406 30.0251 5.18417C27.4457 2.66428 23.9829 1.25351 20.3769 1.25351C16.7709 1.25351 13.3081 2.66428 10.7287 5.18417C8.14932 7.70406 6.65818 11.1331 6.57407 14.7381C6.58252 14.8047 6.57668 14.8724 6.55695 14.9366C6.53722 15.0008 6.50404 15.0601 6.45963 15.1105C6.41522 15.1609 6.36059 15.2012 6.29938 15.2289C6.23816 15.2565 6.17176 15.2708 6.10459 15.2708C6.03742 15.2708 5.97102 15.2565 5.9098 15.2289C5.84858 15.2012 5.79395 15.1609 5.74954 15.1105C5.70513 15.0601 5.67196 15.0008 5.65223 14.9366C5.63249 14.8724 5.62666 14.8047 5.6351 14.7381C5.72206 10.8859 7.3134 7.22083 10.0685 4.52718C12.8237 1.83353 16.5238 0.325317 20.3769 0.325317C24.23 0.325317 27.9301 1.83353 30.6852 4.52718C33.4404 7.22083 35.0317 10.8859 35.1187 14.7381C35.1187 14.8636 35.0688 14.9839 34.9801 15.0727C34.8913 15.1614 34.7709 15.2113 34.6454 15.2113Z" fill="#114A43"/>
<path d="M26.3825 33.9906H14.3637C13.8618 33.9596 13.3906 33.7384 13.0461 33.372C12.7017 33.0056 12.5099 32.5217 12.5099 32.0188C12.5099 31.5159 12.7017 31.032 13.0461 30.6656C13.3906 30.2992 13.8618 30.078 14.3637 30.047H26.3825C26.6517 30.0303 26.9214 30.069 27.1751 30.1606C27.4287 30.2522 27.661 30.3947 27.8575 30.5794C28.054 30.7642 28.2106 30.9872 28.3176 31.2347C28.4246 31.4823 28.4798 31.7491 28.4798 32.0188C28.4798 32.2885 28.4246 32.5553 28.3176 32.8029C28.2106 33.0504 28.054 33.2734 27.8575 33.4582C27.661 33.6429 27.4287 33.7854 27.1751 33.877C26.9214 33.9686 26.6517 34.0073 26.3825 33.9906ZM14.3637 30.9859C14.105 31.008 13.864 31.1264 13.6883 31.3177C13.5127 31.5089 13.4153 31.7591 13.4153 32.0188C13.4153 32.2785 13.5127 32.5287 13.6883 32.7199C13.864 32.9112 14.105 33.0296 14.3637 33.0517H26.3825C26.5255 33.0639 26.6696 33.0462 26.8054 32.9999C26.9413 32.9535 27.0661 32.8794 27.1718 32.7823C27.2775 32.6852 27.362 32.5672 27.4197 32.4358C27.4775 32.3044 27.5073 32.1624 27.5073 32.0188C27.5073 31.8752 27.4775 31.7332 27.4197 31.6018C27.362 31.4704 27.2775 31.3524 27.1718 31.2553C27.0661 31.1582 26.9413 31.0841 26.8054 31.0377C26.6696 30.9914 26.5255 30.9737 26.3825 30.9859H14.3637Z" fill="#114A43"/>
<path d="M26.3825 36.9954H14.3637C13.8618 36.9644 13.3906 36.7432 13.0461 36.3768C12.7017 36.0104 12.5099 35.5264 12.5099 35.0236C12.5099 34.5207 12.7017 34.0367 13.0461 33.6703C13.3906 33.304 13.8618 33.0827 14.3637 33.0517H26.3825C26.6517 33.0351 26.9214 33.0738 27.1751 33.1654C27.4287 33.2569 27.661 33.3995 27.8575 33.5842C28.054 33.7689 28.2106 33.9919 28.3176 34.2395C28.4246 34.487 28.4798 34.7539 28.4798 35.0236C28.4798 35.2933 28.4246 35.5601 28.3176 35.8076C28.2106 36.0552 28.054 36.2782 27.8575 36.4629C27.661 36.6477 27.4287 36.7902 27.1751 36.8818C26.9214 36.9733 26.6517 37.012 26.3825 36.9954ZM14.3637 33.9907C14.105 34.0128 13.864 34.1312 13.6883 34.3224C13.5127 34.5137 13.4153 34.7639 13.4153 35.0236C13.4153 35.2832 13.5127 35.5334 13.6883 35.7247C13.864 35.916 14.105 36.0343 14.3637 36.0564H26.3825C26.5255 36.0686 26.6696 36.051 26.8054 36.0046C26.9413 35.9583 27.0661 35.8842 27.1718 35.7871C27.2775 35.69 27.362 35.572 27.4197 35.4406C27.4775 35.3091 27.5073 35.1671 27.5073 35.0236C27.5073 34.88 27.4775 34.738 27.4197 34.6066C27.362 34.4751 27.2775 34.3571 27.1718 34.26C27.0661 34.1629 26.9413 34.0888 26.8054 34.0425C26.6696 33.9961 26.5255 33.9785 26.3825 33.9907H14.3637Z" fill="#114A43"/>
<path d="M22.6267 40.0001H18.1196C17.3978 39.9981 16.7061 39.7099 16.1964 39.1988C15.6866 38.6876 15.4004 37.9952 15.4004 37.2733V36.5221C15.4004 36.3986 15.4495 36.2801 15.5368 36.1928C15.6241 36.1055 15.7426 36.0564 15.8661 36.0564H24.8802C25.0044 36.0564 25.1237 36.1052 25.2122 36.1923C25.3007 36.2795 25.3515 36.3979 25.3534 36.5221V37.2733C25.3515 37.9959 25.0635 38.6883 24.5526 39.1992C24.0417 39.7102 23.3493 39.9981 22.6267 40.0001ZM16.3394 36.9954V37.2733C16.3394 37.7462 16.5267 38.1997 16.8603 38.5348C17.194 38.8699 17.6468 39.0591 18.1196 39.0611H22.6267C23.1002 39.0591 23.5538 38.8701 23.8887 38.5353C24.2235 38.2004 24.4125 37.7468 24.4145 37.2733V36.9954H16.3394Z" fill="#114A43"/>
<path d="M20.3731 24.2254C18.4967 24.2254 16.6624 23.669 15.1023 22.6265C13.5421 21.584 12.3261 20.1023 11.608 18.3687C10.8899 16.6351 10.702 14.7275 11.0681 12.8872C11.4342 11.0468 12.3378 9.35634 13.6646 8.02951C14.9914 6.70268 16.6819 5.7991 18.5222 5.43303C20.3626 5.06696 22.2702 5.25484 24.0038 5.97292C25.7374 6.69099 27.2191 7.907 28.2616 9.46719C29.304 11.0274 29.8605 12.8616 29.8605 14.7381C29.8605 17.2543 28.8609 19.6674 27.0817 21.4466C25.3025 23.2258 22.8893 24.2254 20.3731 24.2254ZM20.3731 6.19722C18.6821 6.19722 17.0291 6.69876 15.6231 7.6384C14.2172 8.57803 13.1215 9.91355 12.4748 11.476C11.828 13.0384 11.6591 14.7576 11.9896 16.416C12.32 18.0745 13.1349 19.5976 14.3312 20.7928C15.5275 21.988 17.0513 22.8016 18.71 23.1306C20.3688 23.4596 22.0878 23.2892 23.6497 22.6411C25.2115 21.9929 26.5461 20.8961 27.4845 19.4893C28.4229 18.0826 28.923 16.4291 28.9215 14.7381C28.9195 12.4722 28.018 10.2998 26.4151 8.69832C24.8122 7.09681 22.639 6.19721 20.3731 6.19722Z" fill="#114A43"/>
<path d="M18.8182 19.1324C18.6952 19.1293 18.5776 19.0812 18.4877 18.9972L15.4003 15.8798C15.3183 15.7899 15.2742 15.6718 15.277 15.5501C15.2798 15.4284 15.3294 15.3125 15.4155 15.2264C15.5015 15.1403 15.6175 15.0907 15.7391 15.0879C15.8608 15.0851 15.9789 15.1293 16.0689 15.2113L18.8182 18.0282L24.7149 12.1315C24.756 12.0789 24.8078 12.0356 24.8669 12.0045C24.9259 11.9734 24.9909 11.9551 25.0575 11.9509C25.1241 11.9467 25.1909 11.9566 25.2534 11.98C25.3159 12.0034 25.3728 12.0397 25.4203 12.0867C25.4677 12.1336 25.5047 12.1901 25.5288 12.2523C25.5529 12.3145 25.5636 12.3812 25.5601 12.4478C25.5566 12.5145 25.5391 12.5797 25.5087 12.6391C25.4782 12.6985 25.4355 12.7508 25.3834 12.7925L19.1562 18.9972C19.1116 19.0409 19.0587 19.0754 19.0007 19.0986C18.9427 19.1218 18.8807 19.1333 18.8182 19.1324Z" fill="#114A43"/>
</g>
<defs>
<clipPath id="clip0_70_44">
<rect width="40" height="40" fill="white" transform="translate(0.375)"/>
</clipPath>
</defs>
</svg>
