<svg width="16" height="17" viewBox="0 0 16 17" fill="none" xmlns="http://www.w3.org/2000/svg">
<g clip-path="url(#clip0_151_6701)">
<path d="M12.6451 10.0134C12.3176 9.67235 11.9225 9.49 11.5037 9.49C11.0884 9.49 10.6899 9.66898 10.3488 10.01L9.28172 11.0738C9.19392 11.0265 9.10612 10.9826 9.0217 10.9387C8.90013 10.8779 8.78532 10.8205 8.68739 10.7597C7.68782 10.1249 6.77943 9.29752 5.90819 8.22704C5.48608 7.69348 5.20242 7.24436 4.99643 6.78847C5.27333 6.5352 5.52998 6.27181 5.77987 6.01854C5.87442 5.92398 5.96898 5.82605 6.06353 5.7315C6.77268 5.02235 6.77268 4.10383 6.06353 3.39468L5.14163 2.47278C5.03695 2.3681 4.92889 2.26004 4.82758 2.15198C4.62497 1.94261 4.41222 1.72649 4.19272 1.52387C3.86516 1.19969 3.47344 1.02747 3.06146 1.02747C2.64947 1.02747 2.251 1.19969 1.91331 1.52387C1.90993 1.52725 1.90993 1.52725 1.90655 1.53063L0.758404 2.68891C0.326159 3.12115 0.0796448 3.64795 0.0256142 4.25917C-0.0554316 5.24523 0.234983 6.16374 0.457859 6.76483C1.00492 8.24054 1.82213 9.60819 3.04119 11.0738C4.52028 12.8399 6.29991 14.2346 8.33281 15.2172C9.1095 15.5853 10.1462 16.0209 11.3045 16.0952C11.3754 16.0986 11.4497 16.102 11.5172 16.102C12.2973 16.102 12.9524 15.8217 13.4657 15.2645C13.4691 15.2578 13.4758 15.2544 13.4792 15.2476C13.6548 15.0349 13.8574 14.8424 14.0702 14.6364C14.2154 14.498 14.364 14.3528 14.5092 14.2008C14.8435 13.853 15.0191 13.4477 15.0191 13.0324C15.0191 12.6136 14.8401 12.2118 14.499 11.8741L12.6451 10.0134ZM13.8541 13.5693C13.8507 13.5693 13.8507 13.5727 13.8541 13.5693C13.7224 13.7111 13.5873 13.8395 13.4421 13.9813C13.2226 14.1907 12.9997 14.4102 12.7903 14.6567C12.4493 15.0214 12.0474 15.1936 11.5206 15.1936C11.47 15.1936 11.4159 15.1936 11.3653 15.1902C10.3623 15.1261 9.43031 14.7343 8.73129 14.4C6.81996 13.4748 5.14163 12.1611 3.74697 10.4963C2.59544 9.10841 1.82551 7.82518 1.31559 6.44741C1.00154 5.60655 0.886726 4.95143 0.93738 4.33346C0.971149 3.93836 1.12311 3.6108 1.40339 3.33052L2.55492 2.17899C2.72039 2.02365 2.89599 1.93923 3.06821 1.93923C3.28096 1.93923 3.45318 2.06755 3.56124 2.17561C3.56462 2.17899 3.56799 2.18237 3.57137 2.18575C3.77736 2.37823 3.97322 2.57747 4.17921 2.79021C4.2839 2.89827 4.39196 3.00633 4.50002 3.11777L5.42192 4.03967C5.77987 4.39762 5.77987 4.72856 5.42192 5.08651C5.32399 5.18444 5.22943 5.28237 5.1315 5.37692C4.84784 5.66734 4.57769 5.93749 4.2839 6.20089C4.27714 6.20764 4.27039 6.21102 4.26701 6.21778C3.9766 6.50819 4.03063 6.79185 4.09141 6.98433C4.09479 6.99446 4.09817 7.00459 4.10154 7.01473C4.3413 7.59555 4.679 8.14261 5.19229 8.79436L5.19566 8.79773C6.12769 9.94588 7.11037 10.8408 8.19436 11.5263C8.33281 11.6141 8.47464 11.685 8.60972 11.7525C8.73129 11.8133 8.8461 11.8707 8.94403 11.9315C8.95754 11.9383 8.97105 11.9484 8.98456 11.9551C9.09937 12.0126 9.20743 12.0396 9.31887 12.0396C9.59915 12.0396 9.77475 11.864 9.83216 11.8066L10.9871 10.6517C11.1019 10.5368 11.2842 10.3984 11.497 10.3984C11.7063 10.3984 11.8786 10.5301 11.9833 10.6449C11.9866 10.6483 11.9866 10.6483 11.99 10.6517L13.8507 12.5123C14.1985 12.8568 14.1985 13.2114 13.8541 13.5693Z" fill="#14202E"/>
<path d="M8.64673 3.90796C9.53148 4.05655 10.3352 4.47528 10.9768 5.1169C11.6184 5.75851 12.0338 6.56221 12.1857 7.44696C12.2229 7.66984 12.4154 7.82518 12.6349 7.82518C12.6619 7.82518 12.6855 7.8218 12.7125 7.81842C12.9624 7.7779 13.1279 7.54152 13.0874 7.29163C12.905 6.22115 12.3985 5.24522 11.6252 4.47191C10.8519 3.69859 9.87593 3.19206 8.80545 3.0097C8.55556 2.96918 8.32255 3.13465 8.27865 3.38116C8.23475 3.62768 8.39684 3.86744 8.64673 3.90796Z" fill="#14202E"/>
<path d="M15.9819 7.15993C15.6813 5.39718 14.8506 3.79315 13.5741 2.51668C12.2977 1.2402 10.6936 0.409485 8.93089 0.10894C8.68437 0.0650401 8.45137 0.233886 8.40747 0.4804C8.36694 0.730291 8.53241 0.963298 8.7823 1.0072C10.3559 1.27397 11.7911 2.02027 12.9325 3.15829C14.0739 4.29968 14.8168 5.73487 15.0836 7.30851C15.1208 7.53139 15.3132 7.68672 15.5327 7.68672C15.5598 7.68672 15.5834 7.68335 15.6104 7.67997C15.8569 7.64283 16.0258 7.40644 15.9819 7.15993Z" fill="#14202E"/>
</g>
<defs>
<clipPath id="clip0_151_6701">
<rect width="16" height="16" fill="white" transform="translate(0 0.10199)"/>
</clipPath>
</defs>
</svg>
