<svg width="24" height="25" viewBox="0 0 24 25" fill="none" xmlns="http://www.w3.org/2000/svg">
<g clip-path="url(#clip0_96_124)">
<path d="M11.5535 0.927618C9.14734 0.97723 4.55827 2.71363 4.55827 6.16163C4.55827 6.63294 4.58308 7.27789 4.75672 7.55076C5.02958 7.99726 5.69934 7.97245 6.19545 7.97245C7.90705 7.97245 7.88224 7.55076 8.03108 6.73217C8.25433 5.54149 9.09773 4.25159 11.9008 4.25159C13.6372 4.25159 15.5472 5.07018 15.5472 7.27789C15.5472 10.2546 12.8682 10.7259 11.5535 11.0732C10.214 11.4453 8.9737 13.008 8.9737 14.8188V15.0421C8.9737 17.1506 9.27137 16.9769 11.355 16.9769C12.7442 16.9769 12.893 16.7785 12.893 15.3646C12.893 15.3646 12.9426 14.3475 13.1411 14.0995C13.4139 13.7274 14.6542 13.4297 15.0511 13.2561C17.6309 12.115 19.4417 10.1554 19.4417 7.7492C19.4417 3.35858 15.8697 0.828395 11.5535 0.927618Z" fill="#14202E"/>
<path d="M10.983 18.5156C9.49462 18.5156 8.27914 19.6815 8.27914 21.1202C8.27914 22.559 9.49462 23.7248 10.983 23.7248C12.4713 23.7248 13.6868 22.5838 13.6868 21.145C13.6868 19.7063 12.4713 18.5156 10.983 18.5156Z" fill="#14202E"/>
</g>
<defs>
<clipPath id="clip0_96_124">
<rect width="24" height="24" fill="white" transform="translate(0 0.325195)"/>
</clipPath>
</defs>
</svg>
