<svg width="41" height="40" viewBox="0 0 41 40" fill="none" xmlns="http://www.w3.org/2000/svg">
<path d="M21.6488 8.90549H12.0722C11.9751 8.89318 11.8858 8.84585 11.821 8.77239C11.7563 8.69893 11.7206 8.60438 11.7206 8.50646C11.7206 8.40855 11.7563 8.314 11.821 8.24054C11.8858 8.16708 11.9751 8.11975 12.0722 8.10744H21.6488C21.7054 8.10026 21.7629 8.10522 21.8175 8.12199C21.8721 8.13876 21.9225 8.16696 21.9653 8.2047C22.0081 8.24245 22.0424 8.28888 22.0659 8.34091C22.0894 8.39294 22.1016 8.44937 22.1016 8.50646C22.1016 8.56355 22.0894 8.61999 22.0659 8.67202C22.0424 8.72405 22.0081 8.77048 21.9653 8.80822C21.9225 8.84597 21.8721 8.87416 21.8175 8.89093C21.7629 8.9077 21.7054 8.91267 21.6488 8.90549Z" fill="#114A43"/>
<path d="M25.4792 11.4594H17.1795C17.0824 11.4471 16.9931 11.3998 16.9283 11.3263C16.8636 11.2529 16.8279 11.1583 16.8279 11.0604C16.8279 10.9625 16.8636 10.868 16.9283 10.7945C16.9931 10.721 17.0824 10.6737 17.1795 10.6614H25.4792C25.5359 10.6542 25.5934 10.6592 25.6479 10.6759C25.7025 10.6927 25.7529 10.7209 25.7957 10.7587C25.8385 10.7964 25.8729 10.8428 25.8964 10.8949C25.9199 10.9469 25.932 11.0033 25.932 11.0604C25.932 11.1175 25.9199 11.1739 25.8964 11.226C25.8729 11.278 25.8385 11.3244 25.7957 11.3622C25.7529 11.3999 25.7025 11.4281 25.6479 11.4449C25.5934 11.4617 25.5359 11.4666 25.4792 11.4594Z" fill="#114A43"/>
<path d="M14.626 11.4594H12.0722C11.9751 11.4471 11.8858 11.3998 11.821 11.3263C11.7563 11.2529 11.7206 11.1583 11.7206 11.0604C11.7206 10.9625 11.7563 10.868 11.821 10.7945C11.8858 10.721 11.9751 10.6737 12.0722 10.6614H14.626C14.6826 10.6542 14.7401 10.6592 14.7947 10.6759C14.8493 10.6927 14.8996 10.7209 14.9425 10.7587C14.9853 10.7964 15.0196 10.8428 15.0431 10.8949C15.0666 10.9469 15.0788 11.0033 15.0788 11.0604C15.0788 11.1175 15.0666 11.1739 15.0431 11.226C15.0196 11.278 14.9853 11.3244 14.9425 11.3622C14.8996 11.3999 14.8493 11.4281 14.7947 11.4449C14.7401 11.4617 14.6826 11.4666 14.626 11.4594Z" fill="#114A43"/>
<path d="M25.4797 18.4821H18.4569C18.3598 18.4698 18.2705 18.4225 18.2057 18.3491C18.141 18.2756 18.1053 18.181 18.1053 18.0831C18.1053 17.9852 18.141 17.8907 18.2057 17.8172C18.2705 17.7437 18.3598 17.6964 18.4569 17.6841H25.4797C25.5364 17.6769 25.5939 17.6819 25.6485 17.6987C25.703 17.7154 25.7534 17.7436 25.7962 17.7814C25.8391 17.8191 25.8734 17.8655 25.8969 17.9176C25.9204 17.9696 25.9325 18.026 25.9325 18.0831C25.9325 18.1402 25.9204 18.1966 25.8969 18.2487C25.8734 18.3007 25.8391 18.3471 25.7962 18.3849C25.7534 18.4226 25.703 18.4508 25.6485 18.4676C25.5939 18.4844 25.5364 18.4893 25.4797 18.4821Z" fill="#114A43"/>
<path d="M15.9029 18.4821H12.0722C11.9751 18.4698 11.8858 18.4225 11.821 18.3491C11.7563 18.2756 11.7206 18.181 11.7206 18.0831C11.7206 17.9852 11.7563 17.8907 11.821 17.8172C11.8858 17.7437 11.9751 17.6964 12.0722 17.6841H15.9029C15.9595 17.6769 16.017 17.6819 16.0716 17.6987C16.1261 17.7154 16.1765 17.7436 16.2194 17.7814C16.2622 17.8191 16.2965 17.8655 16.32 17.9176C16.3435 17.9696 16.3556 18.026 16.3556 18.0831C16.3556 18.1402 16.3435 18.1966 16.32 18.2487C16.2965 18.3007 16.2622 18.3471 16.2194 18.3849C16.1765 18.4226 16.1261 18.4508 16.0716 18.4676C16.017 18.4844 15.9595 18.4893 15.9029 18.4821Z" fill="#114A43"/>
<path d="M25.4792 15.9283H22.9255C22.8284 15.916 22.739 15.8687 22.6743 15.7952C22.6096 15.7218 22.5739 15.6272 22.5739 15.5293C22.5739 15.4314 22.6096 15.3368 22.6743 15.2634C22.739 15.1899 22.8284 15.1426 22.9255 15.1303H25.4792C25.5359 15.1231 25.5934 15.128 25.648 15.1448C25.7025 15.1616 25.7529 15.1898 25.7957 15.2275C25.8386 15.2653 25.8729 15.3117 25.8964 15.3637C25.9199 15.4158 25.932 15.4722 25.932 15.5293C25.932 15.5864 25.9199 15.6428 25.8964 15.6948C25.8729 15.7469 25.8386 15.7933 25.7957 15.8311C25.7529 15.8688 25.7025 15.897 25.648 15.9138C25.5934 15.9305 25.5359 15.9355 25.4792 15.9283Z" fill="#114A43"/>
<path d="M20.3719 15.9283H12.0722C11.9751 15.916 11.8858 15.8687 11.821 15.7952C11.7563 15.7218 11.7206 15.6272 11.7206 15.5293C11.7206 15.4314 11.7563 15.3368 11.821 15.2634C11.8858 15.1899 11.9751 15.1426 12.0722 15.1303H20.3719C20.4286 15.1231 20.4861 15.128 20.5406 15.1448C20.5952 15.1616 20.6456 15.1898 20.6884 15.2275C20.7312 15.2653 20.7656 15.3117 20.7891 15.3637C20.8126 15.4158 20.8247 15.4722 20.8247 15.5293C20.8247 15.5864 20.8126 15.6428 20.7891 15.6948C20.7656 15.7469 20.7312 15.7933 20.6884 15.8311C20.6456 15.8688 20.5952 15.897 20.5406 15.9138C20.4861 15.9305 20.4286 15.9355 20.3719 15.9283Z" fill="#114A43"/>
<path d="M19.7335 25.505H12.0722C11.9751 25.4927 11.8858 25.4453 11.821 25.3719C11.7563 25.2984 11.7206 25.2039 11.7206 25.106C11.7206 25.008 11.7563 24.9135 11.821 24.84C11.8858 24.7666 11.9751 24.7192 12.0722 24.7069H19.7335C19.7901 24.6997 19.8476 24.7047 19.9022 24.7215C19.9568 24.7382 20.0071 24.7664 20.05 24.8042C20.0928 24.8419 20.1271 24.8884 20.1506 24.9404C20.1741 24.9924 20.1863 25.0489 20.1863 25.106C20.1863 25.163 20.1741 25.2195 20.1506 25.2715C20.1271 25.3235 20.0928 25.37 20.05 25.4077C20.0071 25.4455 19.9568 25.4737 19.9022 25.4904C19.8476 25.5072 19.7901 25.5122 19.7335 25.505Z" fill="#114A43"/>
<path d="M21.0104 22.9513H12.0722C11.9751 22.939 11.8858 22.8916 11.821 22.8182C11.7563 22.7447 11.7206 22.6502 11.7206 22.5522C11.7206 22.4543 11.7563 22.3598 11.821 22.2863C11.8858 22.2129 11.9751 22.1655 12.0722 22.1532H21.0104C21.067 22.146 21.1245 22.151 21.1791 22.1678C21.2336 22.1845 21.284 22.2127 21.3269 22.2505C21.3697 22.2882 21.404 22.3347 21.4275 22.3867C21.451 22.4387 21.4631 22.4952 21.4631 22.5522C21.4631 22.6093 21.451 22.6658 21.4275 22.7178C21.404 22.7698 21.3697 22.8163 21.3269 22.854C21.284 22.8917 21.2336 22.9199 21.1791 22.9367C21.1245 22.9535 21.067 22.9584 21.0104 22.9513Z" fill="#114A43"/>
<path d="M17.1797 29.974H12.0722C11.9751 29.9617 11.8858 29.9143 11.821 29.8409C11.7563 29.7674 11.7206 29.6729 11.7206 29.5749C11.7206 29.477 11.7563 29.3825 11.821 29.309C11.8858 29.2356 11.9751 29.1882 12.0722 29.1759H17.1797C17.2364 29.1687 17.2939 29.1737 17.3484 29.1905C17.403 29.2072 17.4534 29.2354 17.4962 29.2732C17.5391 29.3109 17.5734 29.3574 17.5969 29.4094C17.6204 29.4614 17.6325 29.5179 17.6325 29.5749C17.6325 29.632 17.6204 29.6885 17.5969 29.7405C17.5734 29.7925 17.5391 29.839 17.4962 29.8767C17.4534 29.9145 17.403 29.9426 17.3484 29.9594C17.2939 29.9762 17.2364 29.9811 17.1797 29.974Z" fill="#114A43"/>
<path d="M19.7335 32.5279H12.0722C11.9751 32.5156 11.8858 32.4683 11.821 32.3948C11.7563 32.3214 11.7206 32.2268 11.7206 32.1289C11.7206 32.031 11.7563 31.9364 11.821 31.863C11.8858 31.7895 11.9751 31.7422 12.0722 31.7299H19.7335C19.7901 31.7227 19.8476 31.7277 19.9022 31.7444C19.9568 31.7612 20.0071 31.7894 20.05 31.8271C20.0928 31.8649 20.1271 31.9113 20.1506 31.9633C20.1741 32.0154 20.1863 32.0718 20.1863 32.1289C20.1863 32.186 20.1741 32.2424 20.1506 32.2945C20.1271 32.3465 20.0928 32.3929 20.05 32.4307C20.0071 32.4684 19.9568 32.4966 19.9022 32.5134C19.8476 32.5301 19.7901 32.5351 19.7335 32.5279Z" fill="#114A43"/>
<path d="M23.5641 36.9968H3.77254C3.66698 36.9951 3.5663 36.952 3.49225 36.8768C3.41819 36.8015 3.3767 36.7002 3.37671 36.5946V3.39583C3.37671 3.29085 3.41841 3.19017 3.49265 3.11594C3.56688 3.0417 3.66756 3 3.77254 3H24.2026C24.3093 3.00111 24.4118 3.0421 24.4898 3.11492L29.5974 8.22242C29.6687 8.29886 29.7096 8.3988 29.7123 8.50333V19.3568C29.7194 19.4134 29.7145 19.4709 29.6977 19.5255C29.6809 19.5801 29.6528 19.6304 29.615 19.6733C29.5773 19.7161 29.5308 19.7504 29.4788 19.7739C29.4268 19.7974 29.3703 19.8096 29.3132 19.8096C29.2562 19.8096 29.1997 19.7974 29.1477 19.7739C29.0957 19.7504 29.0492 19.7161 29.0115 19.6733C28.9737 19.6304 28.9455 19.5801 28.9288 19.5255C28.912 19.4709 28.907 19.4134 28.9142 19.3568V8.66933L24.0429 3.79805H4.17476V36.1988H23.5641C23.6208 36.1916 23.6783 36.1965 23.7328 36.2133C23.7874 36.2301 23.8378 36.2583 23.8806 36.296C23.9234 36.3338 23.9578 36.3802 23.9813 36.4322C24.0048 36.4843 24.0169 36.5407 24.0169 36.5978C24.0169 36.6549 24.0048 36.7113 23.9813 36.7633C23.9578 36.8154 23.9234 36.8618 23.8806 36.8995C23.8378 36.9373 23.7874 36.9655 23.7328 36.9823C23.6783 36.999 23.6208 37.004 23.5641 36.9968Z" fill="#114A43"/>
<path d="M29.3103 8.90553H24.2028C24.0973 8.90386 23.9966 8.86074 23.9225 8.78549C23.8485 8.71024 23.807 8.60889 23.807 8.50332V3.39581C23.8069 3.3171 23.8306 3.24019 23.875 3.17523C23.9195 3.11026 23.9826 3.06029 24.056 3.0319C24.1284 3.00099 24.2084 2.99238 24.2857 3.00716C24.3631 3.02195 24.4342 3.05946 24.4901 3.1149L29.5976 8.2224C29.6531 8.27831 29.6906 8.34947 29.7054 8.42681C29.7202 8.50414 29.7115 8.58413 29.6806 8.65654C29.6519 8.73099 29.6009 8.79479 29.5347 8.83933C29.4685 8.88386 29.3901 8.90697 29.3103 8.90553ZM24.6051 8.10748H28.3527L24.6051 4.35985V8.10748Z" fill="#114A43"/>
<path d="M29.3099 36.9967C27.7151 36.9967 26.1561 36.5238 24.8301 35.6378C23.5041 34.7517 22.4706 33.4924 21.8603 32.019C21.25 30.5456 21.0903 28.9243 21.4014 27.3601C21.7125 25.796 22.4805 24.3592 23.6082 23.2315C24.7359 22.1038 26.1727 21.3358 27.7368 21.0247C29.301 20.7136 30.9223 20.8732 32.3957 21.4835C33.8691 22.0939 35.1284 23.1274 36.0145 24.4534C36.9005 25.7794 37.3734 27.3384 37.3734 28.9332C37.3734 31.0718 36.5239 33.1228 35.0117 34.635C33.4995 36.1472 31.4485 36.9967 29.3099 36.9967ZM29.3099 21.6742C27.8727 21.6742 26.4678 22.1005 25.2728 22.8991C24.0779 23.6977 23.1467 24.8328 22.5969 26.1607C22.0472 27.4887 21.9037 28.9498 22.1846 30.3594C22.4654 31.7689 23.158 33.0635 24.1748 34.0793C25.1915 35.0951 26.4867 35.7866 27.8964 36.0662C29.3062 36.3458 30.7672 36.201 32.0947 35.6501C33.4222 35.0993 34.5565 34.167 35.354 32.9714C36.1516 31.7758 36.5766 30.3705 36.5754 28.9332C36.5737 27.0074 35.8075 25.1611 34.4451 23.7999C33.0828 22.4388 31.2357 21.6742 29.3099 21.6742Z" fill="#114A43"/>
<path d="M27.8352 32.7959C27.7831 32.7961 27.7315 32.7861 27.6833 32.7664C27.6351 32.7467 27.5912 32.7176 27.5543 32.6809L24.8601 29.9931C24.7904 29.9167 24.7528 29.8163 24.7552 29.7129C24.7576 29.6094 24.7998 29.5109 24.8729 29.4378C24.9461 29.3646 25.0446 29.3225 25.148 29.3201C25.2515 29.3177 25.3518 29.3552 25.4283 29.4249L27.8352 31.8318L33.1981 26.4689C33.2743 26.3952 33.3762 26.354 33.4822 26.354C33.5882 26.354 33.6901 26.3952 33.7663 26.4689C33.8396 26.5441 33.8806 26.6449 33.8806 26.7499C33.8806 26.8548 33.8396 26.9556 33.7663 27.0308L28.1161 32.6809C28.0791 32.7176 28.0353 32.7467 27.9871 32.7664C27.9389 32.7861 27.8873 32.7961 27.8352 32.7959Z" fill="#114A43"/>
<path d="M8.24178 11.7787C7.84655 11.7787 7.4602 11.6615 7.13158 11.4419C6.80296 11.2224 6.54683 10.9103 6.39558 10.5451C6.24434 10.18 6.20476 9.7782 6.28187 9.39056C6.35897 9.00293 6.54929 8.64687 6.82876 8.3674C7.10823 8.08793 7.4643 7.89761 7.85193 7.8205C8.23956 7.7434 8.64136 7.78297 9.0065 7.93422C9.37164 8.08547 9.68374 8.34159 9.90332 8.67021C10.1229 8.99883 10.2401 9.38519 10.2401 9.78042C10.2401 10.3104 10.0296 10.8187 9.6548 11.1934C9.28004 11.5682 8.77177 11.7787 8.24178 11.7787ZM8.24178 8.58654C8.00412 8.58654 7.77181 8.6571 7.57429 8.78927C7.37677 8.92144 7.22294 9.10927 7.13228 9.32897C7.04163 9.54866 7.01824 9.79032 7.06507 10.0233C7.1119 10.2563 7.22685 10.4702 7.39535 10.6378C7.56385 10.8054 7.77831 10.9192 8.01156 10.9648C8.24481 11.0104 8.48634 10.9857 8.70554 10.8939C8.92475 10.802 9.11176 10.6472 9.24287 10.449C9.37399 10.2508 9.44331 10.0181 9.44204 9.78042C9.44205 9.62309 9.41095 9.46732 9.35056 9.32206C9.29016 9.17679 9.20165 9.0449 9.09011 8.93395C8.97857 8.823 8.8462 8.7352 8.70062 8.67558C8.55503 8.61595 8.3991 8.5857 8.24178 8.58654Z" fill="#114A43"/>
<path d="M8.24178 18.8013C7.84655 18.8013 7.4602 18.6841 7.13158 18.4645C6.80296 18.245 6.54683 17.9329 6.39558 17.5677C6.24434 17.2026 6.20476 16.8008 6.28187 16.4131C6.35897 16.0255 6.54929 15.6694 6.82876 15.39C7.10823 15.1105 7.4643 14.9202 7.85193 14.8431C8.23956 14.766 8.64136 14.8056 9.0065 14.9568C9.37164 15.108 9.68374 15.3642 9.90332 15.6928C10.1229 16.0214 10.2401 16.4078 10.2401 16.803C10.2401 17.333 10.0296 17.8413 9.6548 18.216C9.28004 18.5908 8.77177 18.8013 8.24178 18.8013ZM8.24178 15.6091C8.00412 15.6091 7.77181 15.6797 7.57429 15.8119C7.37677 15.944 7.22294 16.1319 7.13228 16.3515C7.04163 16.5712 7.01824 16.8129 7.06507 17.0459C7.1119 17.2789 7.22685 17.4928 7.39535 17.6604C7.56385 17.828 7.77831 17.9418 8.01156 17.9874C8.24481 18.0329 8.48634 18.0083 8.70554 17.9164C8.92475 17.8246 9.11176 17.6698 9.24287 17.4716C9.37399 17.2733 9.44331 17.0407 9.44204 16.803C9.44205 16.6457 9.41095 16.4899 9.35056 16.3446C9.29016 16.1994 9.20165 16.0675 9.09011 15.9565C8.97857 15.8456 8.8462 15.7578 8.70062 15.6982C8.55503 15.6385 8.3991 15.6083 8.24178 15.6091Z" fill="#114A43"/>
<path d="M8.24178 25.8243C7.84655 25.8243 7.4602 25.7071 7.13158 25.4875C6.80296 25.2679 6.54683 24.9558 6.39558 24.5907C6.24434 24.2255 6.20476 23.8237 6.28187 23.4361C6.35897 23.0485 6.54929 22.6924 6.82876 22.4129C7.10823 22.1335 7.4643 21.9431 7.85193 21.866C8.23956 21.7889 8.64136 21.8285 9.0065 21.9797C9.37164 22.131 9.68374 22.3871 9.90332 22.7157C10.1229 23.0444 10.2401 23.4307 10.2401 23.8259C10.2401 24.0884 10.1884 24.3482 10.088 24.5907C9.98755 24.8331 9.84036 25.0534 9.6548 25.239C9.46924 25.4245 9.24895 25.5717 9.0065 25.6721C8.76406 25.7726 8.5042 25.8243 8.24178 25.8243ZM8.24178 22.6321C8.00412 22.6321 7.77181 22.7026 7.57429 22.8348C7.37677 22.967 7.22294 23.1548 7.13228 23.3745C7.04163 23.5942 7.01824 23.8358 7.06507 24.0688C7.1119 24.3018 7.22685 24.5157 7.39535 24.6833C7.56385 24.8509 7.77831 24.9647 8.01156 25.0103C8.24481 25.0559 8.48634 25.0312 8.70554 24.9394C8.92475 24.8476 9.11176 24.6927 9.24287 24.4945C9.37399 24.2963 9.44331 24.0636 9.44204 23.8259C9.44205 23.6686 9.41095 23.5129 9.35056 23.3676C9.29016 23.2223 9.20165 23.0904 9.09011 22.9795C8.97857 22.8685 8.8462 22.7807 8.70062 22.7211C8.55503 22.6615 8.3991 22.6312 8.24178 22.6321Z" fill="#114A43"/>
<path d="M8.24178 32.8471C7.84655 32.8471 7.4602 32.7299 7.13158 32.5103C6.80296 32.2907 6.54683 31.9786 6.39558 31.6135C6.24434 31.2484 6.20476 30.8466 6.28187 30.4589C6.35897 30.0713 6.54929 29.7152 6.82876 29.4358C7.10823 29.1563 7.4643 28.966 7.85193 28.8889C8.23956 28.8118 8.64136 28.8513 9.0065 29.0026C9.37164 29.1538 9.68374 29.41 9.90332 29.7386C10.1229 30.0672 10.2401 30.4535 10.2401 30.8488C10.2401 31.1112 10.1884 31.371 10.088 31.6135C9.98755 31.8559 9.84036 32.0762 9.6548 32.2618C9.46924 32.4474 9.24895 32.5945 9.0065 32.695C8.76406 32.7954 8.5042 32.8471 8.24178 32.8471ZM8.24178 29.6549C8.00412 29.6549 7.77181 29.7255 7.57429 29.8576C7.37677 29.9898 7.22294 30.1776 7.13228 30.3973C7.04163 30.617 7.01824 30.8587 7.06507 31.0917C7.1119 31.3247 7.22685 31.5385 7.39535 31.7061C7.56385 31.8737 7.77831 31.9875 8.01156 32.0331C8.24481 32.0787 8.48634 32.054 8.70554 31.9622C8.92475 31.8704 9.11176 31.7156 9.24287 31.5173C9.37399 31.3191 9.44331 31.0864 9.44204 30.8488C9.44205 30.6915 9.41095 30.5357 9.35056 30.3904C9.29016 30.2452 9.20165 30.1133 9.09011 30.0023C8.97857 29.8914 8.8462 29.8036 8.70062 29.7439C8.55503 29.6843 8.3991 29.6541 8.24178 29.6549Z" fill="#114A43"/>
</svg>
