<svg width="1920" height="961" viewBox="0 0 1920 961" fill="none" xmlns="http://www.w3.org/2000/svg">
<g clip-path="url(#clip0_1148_63)">
<g clip-path="url(#clip1_1148_63)">
<rect width="1920" height="961.004" fill="#11443F"/>
<rect x="-3.21875" y="-5.93359" width="167.132" height="161.818" rx="20" fill="#1D4E49"/>
<rect x="167.914" y="-5.93359" width="167.132" height="161.818" rx="20" fill="#1D4E49"/>
<rect x="339.047" y="-5.93359" width="167.132" height="161.818" rx="20" fill="#1D4E49"/>
<rect x="510.18" y="-5.93359" width="167.132" height="161.818" rx="20" fill="#1D4E49"/>
<rect x="681.312" y="-5.93359" width="167.132" height="161.818" rx="20" fill="#1D4E49"/>
<rect x="852.438" y="-5.93359" width="167.132" height="161.818" rx="20" fill="#1D4E49"/>
<rect x="1023.57" y="-5.93359" width="167.132" height="161.818" rx="20" fill="#1D4E49"/>
<rect x="1194.7" y="-5.93359" width="167.132" height="161.818" rx="20" fill="#1D4E49"/>
<rect x="1365.84" y="-5.93359" width="167.132" height="161.818" rx="20" fill="#1D4E49"/>
<rect x="1536.97" y="-5.93359" width="167.132" height="161.818" rx="20" fill="#1D4E49"/>
<rect x="1708.1" y="-5.93359" width="167.132" height="161.818" rx="20" fill="#1D4E49"/>
<rect x="1879.23" y="-5.93359" width="167.132" height="161.818" rx="20" fill="#1D4E49"/>
<rect x="-3.21875" y="159.885" width="167.132" height="161.818" rx="20" fill="#1D4E49"/>
<rect x="167.914" y="159.885" width="167.132" height="161.818" rx="20" fill="#1D4E49"/>
<rect x="339.047" y="159.885" width="167.132" height="161.818" rx="20" fill="#1D4E49"/>
<rect x="510.18" y="159.885" width="167.132" height="161.818" rx="20" fill="#1D4E49"/>
<rect x="681.312" y="159.885" width="167.132" height="161.818" rx="20" fill="#1D4E49"/>
<rect x="852.438" y="159.885" width="167.132" height="161.818" rx="20" fill="#1D4E49"/>
<rect x="1023.57" y="159.885" width="167.132" height="161.818" rx="20" fill="#1D4E49"/>
<rect x="1194.7" y="159.885" width="167.132" height="161.818" rx="20" fill="#1D4E49"/>
<rect x="1365.84" y="159.885" width="167.132" height="161.818" rx="20" fill="#1D4E49"/>
<rect x="1536.97" y="159.885" width="167.132" height="161.818" rx="20" fill="#1D4E49"/>
<rect x="1708.1" y="159.885" width="167.132" height="161.818" rx="20" fill="#1D4E49"/>
<rect x="1879.23" y="159.885" width="167.132" height="161.818" rx="20" fill="#1D4E49"/>
<rect x="-3.21875" y="325.703" width="167.132" height="161.818" rx="20" fill="#1D4E49"/>
<rect x="167.914" y="325.703" width="167.132" height="161.818" rx="20" fill="#1D4E49"/>
<rect x="339.047" y="325.703" width="167.132" height="161.818" rx="20" fill="#1D4E49"/>
<rect x="510.18" y="325.703" width="167.132" height="161.818" rx="20" fill="#1D4E49"/>
<rect x="681.312" y="325.703" width="167.132" height="161.818" rx="20" fill="#1D4E49"/>
<rect x="852.438" y="325.703" width="167.132" height="161.818" rx="20" fill="#1D4E49"/>
<rect x="1023.57" y="325.703" width="167.132" height="161.818" rx="20" fill="#1D4E49"/>
<rect x="1194.7" y="325.703" width="167.132" height="161.818" rx="20" fill="#1D4E49"/>
<rect x="1365.84" y="325.703" width="167.132" height="161.818" rx="20" fill="#1D4E49"/>
<rect x="1536.97" y="325.703" width="167.132" height="161.818" rx="20" fill="#1D4E49"/>
<rect x="1708.1" y="325.703" width="167.132" height="161.818" rx="20" fill="#1D4E49"/>
<rect x="1879.23" y="325.703" width="167.132" height="161.818" rx="20" fill="#1D4E49"/>
<rect x="-3.21875" y="491.521" width="167.132" height="161.818" rx="20" fill="#1D4E49"/>
<rect x="167.914" y="491.521" width="167.132" height="161.818" rx="20" fill="#1D4E49"/>
<rect x="339.047" y="491.521" width="167.132" height="161.818" rx="20" fill="#1D4E49"/>
<rect x="510.18" y="491.521" width="167.132" height="161.818" rx="20" fill="#1D4E49"/>
<rect x="681.312" y="491.521" width="167.132" height="161.818" rx="20" fill="#1D4E49"/>
<rect x="852.438" y="491.521" width="167.132" height="161.818" rx="20" fill="#1D4E49"/>
<rect x="1023.57" y="491.521" width="167.132" height="161.818" rx="20" fill="#1D4E49"/>
<rect x="1194.7" y="491.521" width="167.132" height="161.818" rx="20" fill="#1D4E49"/>
<rect x="1365.84" y="491.521" width="167.132" height="161.818" rx="20" fill="#1D4E49"/>
<rect x="1536.97" y="491.521" width="167.132" height="161.818" rx="20" fill="#1D4E49"/>
<rect x="1708.1" y="491.521" width="167.132" height="161.818" rx="20" fill="#1D4E49"/>
<rect x="1879.23" y="491.521" width="167.132" height="161.818" rx="20" fill="#1D4E49"/>
<rect x="-3.21875" y="657.34" width="167.132" height="161.818" rx="20" fill="#1D4E49"/>
<rect x="167.914" y="657.34" width="167.132" height="161.818" rx="20" fill="#1D4E49"/>
<rect x="339.047" y="657.34" width="167.132" height="161.818" rx="20" fill="#1D4E49"/>
<rect x="510.18" y="657.34" width="167.132" height="161.818" rx="20" fill="#1D4E49"/>
<rect x="681.312" y="657.34" width="167.132" height="161.818" rx="20" fill="#1D4E49"/>
<rect x="852.438" y="657.34" width="167.132" height="161.818" rx="20" fill="#1D4E49"/>
<rect x="1023.57" y="657.34" width="167.132" height="161.818" rx="20" fill="#1D4E49"/>
<rect x="1194.7" y="657.34" width="167.132" height="161.818" rx="20" fill="#1D4E49"/>
<rect x="1365.84" y="657.34" width="167.132" height="161.818" rx="20" fill="#1D4E49"/>
<rect x="1536.97" y="657.34" width="167.132" height="161.818" rx="20" fill="#1D4E49"/>
<rect x="1708.1" y="657.34" width="167.132" height="161.818" rx="20" fill="#1D4E49"/>
<rect x="1879.23" y="657.34" width="167.132" height="161.818" rx="20" fill="#1D4E49"/>
<rect x="-3.21875" y="823.158" width="167.132" height="161.818" rx="20" fill="#1D4E49"/>
<rect x="167.914" y="823.158" width="167.132" height="161.818" rx="20" fill="#1D4E49"/>
<rect x="339.047" y="823.158" width="167.132" height="161.818" rx="20" fill="#1D4E49"/>
<rect x="510.18" y="823.158" width="167.132" height="161.818" rx="20" fill="#1D4E49"/>
<rect x="681.312" y="823.158" width="167.132" height="161.818" rx="20" fill="#1D4E49"/>
<rect x="852.438" y="823.158" width="167.132" height="161.818" rx="20" fill="#1D4E49"/>
<rect x="1023.57" y="823.158" width="167.132" height="161.818" rx="20" fill="#1D4E49"/>
<rect x="1194.7" y="823.158" width="167.132" height="161.818" rx="20" fill="#1D4E49"/>
<rect x="1365.84" y="823.158" width="167.132" height="161.818" rx="20" fill="#1D4E49"/>
<rect x="1536.97" y="823.158" width="167.132" height="161.818" rx="20" fill="#1D4E49"/>
<rect x="1708.1" y="823.158" width="167.132" height="161.818" rx="20" fill="#1D4E49"/>
<rect x="1879.23" y="823.158" width="167.132" height="161.818" rx="20" fill="#1D4E49"/>
</g>
</g>
<defs>
<clipPath id="clip0_1148_63">
<rect width="1920" height="961" fill="white"/>
</clipPath>
<clipPath id="clip1_1148_63">
<rect width="1920" height="961.004" fill="white"/>
</clipPath>
</defs>
</svg>
