<svg width="158" height="159" viewBox="0 0 158 159" fill="none" xmlns="http://www.w3.org/2000/svg">
<g clip-path="url(#clip0_1185_73)">
<path d="M64.126 22.9648H4.62891C2.07216 22.9648 0 25.037 0 27.5938V87.0909C0 89.6476 2.07216 91.7198 4.62891 91.7198H29.748V131.714C29.748 134.27 31.8201 136.343 34.3769 136.343H49.252C51.2434 136.343 53.013 135.068 53.6423 133.177L68.5163 88.5555C68.6742 88.0829 68.7549 87.5887 68.7549 87.0909V27.5938C68.7549 25.037 66.6828 22.9648 64.126 22.9648ZM59.4971 86.3399L45.9154 127.084H39.0058V87.0909C39.0058 84.5341 36.9336 82.462 34.3769 82.462H9.25781V32.2227H59.4971V86.3399Z" fill="#D8E28C"/>
<path d="M153.376 22.9648H93.8789C91.3222 22.9648 89.25 25.037 89.25 27.5938V87.0909C89.25 89.6476 91.3222 91.7198 93.8789 91.7198H118.999V131.714C118.999 134.27 121.071 136.343 123.628 136.343H138.502C140.495 136.343 142.263 135.068 142.893 133.177L157.767 88.5555C157.924 88.0829 158.005 87.5887 158.005 87.0909V27.5938C158.005 25.037 155.933 22.9648 153.376 22.9648ZM148.747 86.3399L135.165 127.084H128.257V87.0909C128.257 84.5341 126.184 82.462 123.628 82.462H98.5078V32.2227H148.747V86.3399Z" fill="#D8E28C"/>
</g>
<defs>
<clipPath id="clip0_1185_73">
<rect width="158" height="158" fill="white" transform="translate(0 0.746094)"/>
</clipPath>
</defs>
</svg>
